<mxfile host="app.diagrams.net" modified="2021-04-11T22:08:38.269Z" agent="5.0 (Windows)" etag="D0siVwU7VV5FdX5kTZaW" version="14.5.10" type="github">
  <diagram id="kwdaV6lwQRHlGCmWyIas" name="Page-1">
    <mxGraphModel dx="1422" dy="801" grid="1" gridSize="10" guides="1" tooltips="1" connect="1" arrows="1" fold="1" page="1" pageScale="1" pageWidth="1100" pageHeight="1700" math="0" shadow="0">
      <root>
        <mxCell id="0" />
        <mxCell id="1" parent="0" />
      </root>
    </mxGraphModel>
  </diagram>
</mxfile>
